<svg width="100" height="100" viewBox="0 0 100 100" fill="none" xmlns="http://www.w3.org/2000/svg">
<rect width="100" height="100" fill="black"/>
<path d="M63.5718 44.2266L74.9242 37.673L72.7039 33.8288L61.3515 40.3824C57.2928 42.7264 52.2176 39.7969 52.2176 35.109V22H47.7788V35.109C47.7788 39.7969 42.7054 42.7264 38.6449 40.3824L27.2943 33.827L25.074 37.673L36.4264 44.2266C40.4851 46.5705 40.4851 52.4295 36.4264 54.7734L25.074 61.327L27.2943 65.1712L38.6467 58.6176C42.7054 56.2736 47.7806 59.2031 47.7806 63.891V77H52.2194V63.891C52.2194 59.2031 57.2928 56.2736 61.3533 58.6176L72.7057 65.1712L74.926 61.327L63.5736 54.7734C59.5149 52.4295 59.5149 46.5705 63.5736 44.2266H63.5718ZM57.2837 49.8528C57.2837 52.8641 54.8415 55.3062 51.8302 55.3062H48.1661C45.1548 55.3062 42.7127 52.8641 42.7127 49.8528V49.1472C42.7127 46.1359 45.1548 43.6938 48.1661 43.6938H51.8302C54.8415 43.6938 57.2837 46.1359 57.2837 49.1472V49.8528Z" fill="white"/>
</svg>
