<svg xmlns="http://www.w3.org/2000/svg" width="11" height="12" viewBox="0 0 11 12" fill="none">
    <path d="M4.33086 3.84323L1.96022 3.85811C1.61108 3.8603 1.32992 4.16055 1.33223 4.52873L1.37197 10.8619C1.37428 11.2301 1.65918 11.5268 2.00832 11.5246L4.37897 11.5098M4.33086 3.84323L4.37897 11.5098M4.33086 3.84323L4.31413 1.17662C4.31182 0.808437 4.59298 0.50819 4.94211 0.505999L6.83863 0.494099C7.18777 0.491908 7.47267 0.788603 7.47498 1.15679L7.50845 6.49001M7.50845 6.49001L7.53982 11.4899M7.50845 6.49001L9.87909 6.47514C10.2282 6.47295 10.5131 6.76964 10.5154 7.13782L10.5385 10.8044C10.5408 11.1726 10.2596 11.4728 9.91047 11.475L7.53982 11.4899M7.53982 11.4899L4.37897 11.5098" stroke="#242424" stroke-width="0.8" stroke-linejoin="round"/>
  </svg>