<svg width="24" height="24" viewBox="0 0 24 24" fill="none" xmlns="http://www.w3.org/2000/svg">
<g id="Frame 60">
<path id="Vector" d="M10.7329 14.2054C10.7433 13.8179 10.4313 13.488 10.033 13.488H6.94699L13.3206 4.15627L12.5156 10.6464C12.4638 11.064 12.7895 11.4325 13.2103 11.4325H16.9417L9.9108 19.9848L10.2611 17.5363C10.2064 18.207 11.0609 18.5668 11.5001 18.0325L15.9701 12.5956C16.3456 12.1388 16.0207 11.451 15.4294 11.451H12.4067L12.9598 7.05558C13.0516 6.32649 12.1014 5.96662 11.6871 6.57359L7.7278 12.3749C7.41069 12.8396 7.74344 13.4695 8.30598 13.4695H10.8375L10.7329 14.2054ZM9.78815 20.8421C9.78813 20.8422 9.78811 20.8424 9.78809 20.8425L9.78815 20.8421ZM13.8582 3.3692C13.8581 3.36931 13.858 3.36942 13.8579 3.36954L13.8582 3.3692L13.7415 3.28952L13.8582 3.3692Z" stroke="#FCFCFD"/>
</g>
</svg>
