<svg xmlns="http://www.w3.org/2000/svg" width="11" height="12" viewBox="0 0 11 12" fill="none">
  <g clipPath="url(#clip0_1293_4099)">
    <path d="M7.5 6.75H8.25V7.5H7.5V6.75Z" fill="#242424" />
    <path d="M10.5 6H11.25V6.75H10.5V6Z" fill="#242424" />
    <path d="M5.25 2.25H6V3H5.25V2.25Z" fill="#242424" />
    <path
      d="M6 8.25H4.5V6C4.49977 5.80116 4.42068 5.61053 4.28008 5.46992C4.13947 5.32932 3.94884 5.25023 3.75 5.25H1.5C1.30116 5.25023 1.11052 5.32932 0.969922 5.46992C0.829319 5.61053 0.750228 5.80116 0.75 6V8.25C0.750228 8.44884 0.829319 8.63948 0.969922 8.78008C1.11052 8.92068 1.30116 8.99977 1.5 9H3.75V10.5C3.75023 10.6988 3.82932 10.8895 3.96992 11.0301C4.11053 11.1707 4.30116 11.2498 4.5 11.25H6C6.19884 11.2498 6.38948 11.1707 6.53008 11.0301C6.67068 10.8895 6.74977 10.6988 6.75 10.5V9C6.74977 8.80116 6.67068 8.61052 6.53008 8.46992C6.38948 8.32932 6.19884 8.25023 6 8.25ZM1.5 8.25V6H3.75V8.25H1.5ZM4.5 10.5V9H6V10.5H4.5Z"
      fill="#242424"
    />
    <path
      d="M10.5 11.25H9C8.80115 11.2498 8.61051 11.1707 8.4699 11.0301C8.32929 10.8895 8.25021 10.6988 8.25 10.5V9C8.25021 8.80115 8.32929 8.61051 8.4699 8.4699C8.61051 8.32929 8.80115 8.25021 9 8.25H10.5C10.6988 8.25021 10.8895 8.32929 11.0301 8.4699C11.1707 8.61051 11.2498 8.80115 11.25 9V10.5C11.2498 10.6988 11.1707 10.8895 11.0301 11.0301C10.8895 11.1707 10.6988 11.2498 10.5 11.25ZM9 9V10.5H10.5V9H9Z"
      fill="#242424"
    />
    <path
      d="M10.5 0.75H8.25C8.05116 0.750228 7.86052 0.829319 7.71992 0.969922C7.57932 1.11052 7.50023 1.30116 7.5 1.5V3.75H6.75C6.55116 3.75023 6.36052 3.82932 6.21992 3.96992C6.07932 4.11053 6.00023 4.30116 6 4.5V5.25C6.00023 5.44884 6.07932 5.63947 6.21992 5.78008C6.36052 5.92068 6.55116 5.99977 6.75 6H7.5C7.69884 5.99977 7.88948 5.92068 8.03008 5.78008C8.17068 5.63947 8.24977 5.44884 8.25 5.25V4.5H10.5C10.6988 4.49977 10.8895 4.42068 11.0301 4.28008C11.1707 4.13947 11.2498 3.94884 11.25 3.75V1.5C11.2498 1.30116 11.1707 1.11052 11.0301 0.969922C10.8895 0.829319 10.6988 0.750228 10.5 0.75ZM6.75 5.25V4.5H7.5V5.25H6.75ZM8.25 3.75V1.5H10.5V3.75H8.25Z"
      fill="#242424"
    />
    <path
      d="M3 3.75H1.5C1.30115 3.74979 1.11051 3.67071 0.9699 3.5301C0.829293 3.38949 0.750208 3.19885 0.75 3V1.5C0.750208 1.30115 0.829293 1.11051 0.9699 0.9699C1.11051 0.829293 1.30115 0.750208 1.5 0.75H3C3.19885 0.750208 3.38949 0.829293 3.5301 0.9699C3.67071 1.11051 3.74979 1.30115 3.75 1.5V3C3.74979 3.19885 3.67071 3.38949 3.5301 3.5301C3.38949 3.67071 3.19885 3.74979 3 3.75ZM1.5 1.5V3H3V1.5H1.5Z"
      fill="#242424"
    />
  </g>
  <defs>
    <clipPath id="clip0_1293_4099">
      <rect width="12" height="12" fill="white" />
    </clipPath>
  </defs>
</svg>